<svg width="100%" height="100%" viewBox="0 0 480 68" version="1.1" xmlns="http://www.w3.org/2000/svg"
  xmlns:xlink="http://www.w3.org/1999/xlink" xml:space="preserve" xmlns:serif="http://www.serif.com/"
  style="fill-rule:evenodd;clip-rule:evenodd;stroke-linecap:square;stroke-linejoin:round;stroke-miterlimit:2;">
  <g id="Consulting">
    <path
      d="M3.967,39.614c-0,3.015 0.765,5.801 2.295,8.359c1.53,2.558 3.586,4.591 6.166,6.098c2.581,1.507 5.379,2.261 8.394,2.261c3.106,0 5.915,-0.617 8.427,-1.85c2.513,-1.233 4.488,-2.946 5.927,-5.139c1.439,-2.192 2.181,-4.659 2.227,-7.399l2.466,-0c0,3.151 -0.833,6.018 -2.501,8.598c-1.667,2.581 -3.951,4.614 -6.851,6.098c-2.901,1.485 -6.132,2.227 -9.695,2.227c-3.472,0 -6.692,-0.868 -9.661,-2.603c-2.969,-1.736 -5.322,-4.077 -7.057,-7.023c-1.736,-2.947 -2.604,-6.155 -2.604,-9.627l0,-11.237c0,-3.471 0.856,-6.68 2.569,-9.626c1.713,-2.946 4.043,-5.287 6.989,-7.023c2.946,-1.736 6.155,-2.604 9.627,-2.604c3.517,0 6.726,0.742 9.626,2.227c2.901,1.484 5.196,3.517 6.886,6.098c1.69,2.581 2.535,5.447 2.535,8.599l-2.466,-0c-0.046,-2.741 -0.8,-5.208 -2.261,-7.4c-1.462,-2.193 -3.438,-3.905 -5.927,-5.139c-2.489,-1.233 -5.287,-1.85 -8.393,-1.85c-3.015,0 -5.801,0.754 -8.359,2.261c-2.558,1.508 -4.591,3.54 -6.098,6.098c-1.508,2.558 -2.261,5.345 -2.261,8.359l-0,11.237Z"
      style="fill-opacity:0;fill-rule:nonzero;stroke:#000;stroke-width:3px;" />
    <path
      d="M70.359,9.124c3.563,0 6.852,0.879 9.867,2.638c3.014,1.759 5.401,4.145 7.16,7.16c1.758,3.015 2.638,6.304 2.638,9.866l-0,10.415c-0,3.563 -0.88,6.852 -2.638,9.866c-1.759,3.015 -4.146,5.402 -7.16,7.16c-3.015,1.759 -6.304,2.638 -9.867,2.638c-3.563,0 -6.851,-0.879 -9.866,-2.638c-3.015,-1.758 -5.402,-4.145 -7.16,-7.16c-1.759,-3.014 -2.638,-6.303 -2.638,-9.866l-0,-10.415c-0,-3.562 0.879,-6.851 2.638,-9.866c1.758,-3.015 4.145,-5.401 7.16,-7.16c3.015,-1.759 6.303,-2.638 9.866,-2.638Zm-17.129,30.079c0,3.106 0.765,5.972 2.295,8.599c1.531,2.626 3.609,4.705 6.235,6.235c2.627,1.53 5.493,2.295 8.599,2.295c3.106,0 5.973,-0.765 8.599,-2.295c2.627,-1.53 4.705,-3.609 6.235,-6.235c1.53,-2.627 2.295,-5.493 2.295,-8.599l0,-10.415c0,-3.106 -0.765,-5.972 -2.295,-8.598c-1.53,-2.627 -3.608,-4.705 -6.235,-6.235c-2.626,-1.531 -5.493,-2.296 -8.599,-2.296c-3.106,0 -5.972,0.765 -8.599,2.296c-2.626,1.53 -4.704,3.608 -6.235,6.235c-1.53,2.626 -2.295,5.492 -2.295,8.598l0,10.415Z"
      style="fill-opacity:0;fill-rule:nonzero;stroke:#000;stroke-width:3px;" />
    <path
      d="M101.74,57.84l-0,-47.688l2.672,-0l33.299,32.34l0,-32.34l2.535,-0l0,47.688l-2.535,-0l0,-11.785l-33.436,-32.614l0,44.399l-2.535,-0Z"
      style="fill-opacity:0;fill-rule:nonzero;stroke:#000;stroke-width:3px;stroke-linejoin:miter;stroke-miterlimit:6;" />
    <path
      d="M171.421,35.023c-3.882,-0.776 -7.045,-1.633 -9.489,-2.569c-2.444,-0.936 -4.362,-2.215 -5.756,-3.837c-1.393,-1.621 -2.089,-3.711 -2.089,-6.269c-0,-2.649 0.696,-4.979 2.089,-6.989c1.394,-2.01 3.358,-3.563 5.893,-4.659c2.535,-1.096 5.47,-1.644 8.804,-1.644c3.198,-0 6.132,0.673 8.805,2.021c2.672,1.347 4.784,3.232 6.337,5.652c1.553,2.421 2.33,5.185 2.33,8.291l-2.535,0c-0,-2.695 -0.662,-5.07 -1.987,-7.126c-1.325,-2.055 -3.129,-3.643 -5.413,-4.762c-2.284,-1.119 -4.819,-1.678 -7.605,-1.678c-2.467,-0 -4.774,0.388 -6.92,1.164c-2.147,0.777 -3.894,1.965 -5.242,3.563c-1.347,1.599 -2.021,3.609 -2.021,6.03c-0,2.192 0.639,3.94 1.918,5.241c1.279,1.302 2.946,2.296 5.002,2.981c2.055,0.685 4.933,1.416 8.633,2.192c3.746,0.777 6.658,1.519 8.736,2.227c2.078,0.708 3.837,1.884 5.276,3.529c1.439,1.644 2.158,3.951 2.158,6.92c-0,2.969 -0.788,5.47 -2.364,7.503c-1.576,2.032 -3.665,3.551 -6.269,4.556c-2.604,1.005 -5.436,1.507 -8.496,1.507c-3.791,0 -7.126,-0.708 -10.004,-2.124c-2.877,-1.416 -5.081,-3.414 -6.611,-5.995c-1.531,-2.581 -2.296,-5.538 -2.296,-8.873l2.535,0c0,2.923 0.651,5.481 1.953,7.674c1.302,2.193 3.186,3.894 5.653,5.104c2.466,1.211 5.39,1.816 8.77,1.816c4.202,0 7.685,-1.005 10.449,-3.015c2.763,-2.009 4.145,-4.75 4.145,-8.222c-0,-2.375 -0.594,-4.202 -1.782,-5.481c-1.187,-1.279 -2.683,-2.204 -4.487,-2.775c-1.805,-0.571 -4.511,-1.222 -8.12,-1.953Z"
      style="fill-opacity:0;fill-rule:nonzero;stroke:#000;stroke-width:3px;" />
    <path
      d="M201.158,10.152l2.535,-0l-0,29.462c-0,3.015 0.753,5.801 2.261,8.359c1.507,2.558 3.54,4.591 6.098,6.098c2.558,1.507 5.344,2.261 8.359,2.261c3.015,0 5.801,-0.754 8.359,-2.261c2.558,-1.507 4.59,-3.54 6.098,-6.098c1.507,-2.558 2.261,-5.344 2.261,-8.359l-0,-29.462l2.535,-0l-0,29.462c-0,3.472 -0.868,6.68 -2.604,9.627c-1.735,2.946 -4.076,5.287 -7.023,7.023c-2.946,1.735 -6.155,2.603 -9.626,2.603c-3.472,0 -6.681,-0.868 -9.627,-2.603c-2.946,-1.736 -5.287,-4.077 -7.023,-7.023c-1.736,-2.947 -2.603,-6.155 -2.603,-9.627l-0,-29.462Z"
      style="fill-opacity:0;fill-rule:nonzero;stroke:#000;stroke-width:3px;" />
    <path d="M255.697,57.84l-0,-47.688l2.535,-0l0,45.152l33.231,0l-0,2.536l-35.766,-0Z"
      style="fill-opacity:0;fill-rule:nonzero;stroke:#000;stroke-width:3px;" />
    <path d="M330.791,10.152l0,2.535l-18.02,0l0,45.153l-2.466,-0l-0,-45.153l-18.02,0l-0,-2.535l38.506,-0Z"
      style="fill-opacity:0;fill-rule:nonzero;stroke:#000;stroke-width:3px;stroke-linejoin:miter;stroke-miterlimit:3;" />
    <path
      d="M370.873,10.152l0,2.535l-14.251,0l-0,42.617l14.251,0l0,2.536l-30.901,-0l0,-2.536l14.183,0l0,-42.617l-14.183,0l0,-2.535l30.901,-0Z"
      style="fill-opacity:0;fill-rule:nonzero;stroke:#000;stroke-width:3px;stroke-linejoin:miter;stroke-miterlimit:3;" />
    <path
      d="M382.658,57.84l0,-47.688l2.672,-0l33.3,32.34l-0,-32.34l2.535,-0l-0,47.688l-2.535,-0l-0,-11.785l-33.437,-32.614l0,44.399l-2.535,-0Z"
      style="fill-opacity:0;fill-rule:nonzero;stroke:#000;stroke-width:3px;stroke-linejoin:miter;stroke-miterlimit:6;" />
    <path
      d="M468.099,48.042c-1.234,3.151 -3.472,5.744 -6.715,7.776c-3.243,2.033 -6.715,3.049 -10.415,3.049c-3.562,0 -6.851,-0.89 -9.866,-2.672c-3.015,-1.781 -5.401,-4.237 -7.16,-7.365c-1.759,-3.129 -2.638,-6.567 -2.638,-10.312l0,-9.593c0,-3.654 0.879,-6.988 2.638,-10.003c1.759,-3.015 4.134,-5.401 7.126,-7.16c2.992,-1.759 6.292,-2.638 9.9,-2.638c2.969,0 5.687,0.491 8.154,1.473c2.467,0.982 4.568,2.41 6.303,4.283c1.416,1.553 2.57,3.288 3.461,5.207c0.89,1.918 1.336,3.86 1.336,5.824l-2.467,-0c-0.046,-1.69 -0.468,-3.358 -1.268,-5.002c-0.799,-1.644 -1.815,-3.129 -3.049,-4.454c-3.06,-3.197 -7.217,-4.796 -12.47,-4.796c-3.151,0 -6.04,0.765 -8.667,2.296c-2.626,1.53 -4.693,3.608 -6.201,6.235c-1.507,2.626 -2.261,5.538 -2.261,8.735l0,9.593c0,3.334 0.765,6.36 2.296,9.078c1.53,2.718 3.608,4.854 6.235,6.407c2.626,1.553 5.492,2.329 8.598,2.329c3.152,0 6.041,-0.765 8.668,-2.295c2.626,-1.53 4.693,-3.609 6.201,-6.235c1.507,-2.627 2.261,-5.493 2.261,-8.599l-0,-2.398l-17.13,-0l0,-2.535l19.665,-0l-0,23.57l-2.535,-0l-0,-9.798Z"
      style="fill-opacity:0;fill-rule:nonzero;stroke:#000;stroke-width:3px;stroke-linejoin:miter;stroke-miterlimit:6;" />
  </g>
</svg>