<svg width="100%" height="100%" viewBox="0 0 316 63" version="1.1" xmlns="http://www.w3.org/2000/svg"
  xmlns:xlink="http://www.w3.org/1999/xlink" xml:space="preserve" xmlns:serif="http://www.serif.com/"
  style="fill-rule:evenodd;clip-rule:evenodd;stroke-miterlimit:2;">
  <g id="Fashion">
    <path
      d="M3.354,7.649l35.56,-0l0,2.535l-33.025,-0l0,20.007l26.722,-0l-0,2.535l-26.722,-0l0,22.61l-2.535,0l0,-47.687Z"
      style="fill-opacity:0;fill-rule:nonzero;stroke:#000;stroke-width:3px;" />
    <path
      d="M57.897,7.649l2.672,-0l19.596,47.687l-2.741,0l-6.44,-15.759l-23.502,0l-6.509,15.759l-2.672,0l19.596,-47.687Zm-9.387,29.462l21.446,-0l-10.757,-26.174l-10.689,26.174Z"
      style="fill-opacity:0;fill-rule:nonzero;stroke:#000;stroke-width:3px;stroke-miterlimit:5;" />
    <path
      d="M106.244,32.52c-3.883,-0.776 -7.046,-1.633 -9.49,-2.569c-2.444,-0.937 -4.362,-2.216 -5.755,-3.837c-1.394,-1.622 -2.09,-3.712 -2.09,-6.27c-0,-2.649 0.696,-4.978 2.09,-6.988c1.393,-2.01 3.357,-3.563 5.892,-4.659c2.535,-1.097 5.47,-1.645 8.804,-1.645c3.198,0 6.133,0.674 8.805,2.022c2.672,1.347 4.785,3.231 6.338,5.652c1.553,2.421 2.329,5.185 2.329,8.291l-2.535,-0c0,-2.695 -0.662,-5.071 -1.987,-7.126c-1.325,-2.056 -3.129,-3.643 -5.413,-4.762c-2.284,-1.119 -4.819,-1.679 -7.605,-1.679c-2.467,0 -4.773,0.389 -6.92,1.165c-2.147,0.777 -3.894,1.964 -5.242,3.563c-1.347,1.599 -2.021,3.609 -2.021,6.029c-0,2.193 0.639,3.94 1.918,5.242c1.279,1.302 2.947,2.295 5.002,2.98c2.056,0.686 4.933,1.416 8.633,2.193c3.746,0.777 6.658,1.519 8.736,2.227c2.078,0.708 3.837,1.884 5.276,3.528c1.439,1.645 2.158,3.952 2.158,6.921c0,2.969 -0.788,5.47 -2.364,7.502c-1.576,2.033 -3.665,3.552 -6.269,4.557c-2.604,1.004 -5.436,1.507 -8.496,1.507c-3.791,-0 -7.126,-0.708 -10.003,-2.124c-2.878,-1.416 -5.082,-3.415 -6.612,-5.995c-1.53,-2.581 -2.296,-5.539 -2.296,-8.873l2.536,-0c-0,2.923 0.65,5.481 1.952,7.674c1.302,2.192 3.186,3.894 5.653,5.104c2.466,1.211 5.39,1.816 8.77,1.816c4.202,-0 7.685,-1.005 10.449,-3.015c2.763,-2.01 4.145,-4.75 4.145,-8.222c0,-2.375 -0.594,-4.202 -1.781,-5.481c-1.188,-1.279 -2.684,-2.204 -4.488,-2.775c-1.804,-0.571 -4.511,-1.222 -8.119,-1.953Z"
      style="fill-opacity:0;fill-rule:nonzero;stroke:#000;stroke-width:3px;" />
    <path
      d="M134.871,55.336l-0,-47.687l2.535,-0l-0,22.542l31.654,-0l0,-22.542l2.535,-0l0,47.687l-2.535,0l0,-22.61l-31.654,-0l-0,22.61l-2.535,0Z"
      style="fill-opacity:0;fill-rule:nonzero;stroke:#000;stroke-width:3px;" />
    <path
      d="M212.735,7.649l-0,2.535l-14.252,-0l0,42.617l14.252,0l-0,2.535l-30.901,0l-0,-2.535l14.183,0l-0,-42.617l-14.183,-0l-0,-2.535l30.901,-0Z"
      style="fill-opacity:0;fill-rule:nonzero;stroke:#000;stroke-width:3px;" />
    <path
      d="M240.267,6.621c3.563,-0 6.852,0.879 9.867,2.638c3.014,1.758 5.401,4.145 7.16,7.16c1.758,3.014 2.638,6.303 2.638,9.866l-0,10.415c-0,3.562 -0.88,6.851 -2.638,9.866c-1.759,3.015 -4.146,5.401 -7.16,7.16c-3.015,1.759 -6.304,2.638 -9.867,2.638c-3.563,-0 -6.851,-0.879 -9.866,-2.638c-3.015,-1.759 -5.401,-4.145 -7.16,-7.16c-1.759,-3.015 -2.638,-6.304 -2.638,-9.866l0,-10.415c0,-3.563 0.879,-6.852 2.638,-9.866c1.759,-3.015 4.145,-5.402 7.16,-7.16c3.015,-1.759 6.303,-2.638 9.866,-2.638Zm-17.129,30.079c0,3.106 0.765,5.972 2.295,8.598c1.531,2.627 3.609,4.705 6.235,6.235c2.627,1.531 5.493,2.296 8.599,2.296c3.106,-0 5.973,-0.765 8.599,-2.296c2.627,-1.53 4.705,-3.608 6.235,-6.235c1.53,-2.626 2.296,-5.492 2.296,-8.598l-0,-10.415c-0,-3.106 -0.766,-5.972 -2.296,-8.599c-1.53,-2.626 -3.608,-4.705 -6.235,-6.235c-2.626,-1.53 -5.493,-2.295 -8.599,-2.295c-3.106,-0 -5.972,0.765 -8.599,2.295c-2.626,1.53 -4.704,3.609 -6.235,6.235c-1.53,2.627 -2.295,5.493 -2.295,8.599l0,10.415Z"
      style="fill-opacity:0;fill-rule:nonzero;stroke:#000;stroke-width:3px;" />
    <path
      d="M269.648,55.336l-0,-47.687l2.672,-0l33.299,32.339l0,-32.339l2.535,-0l0,47.687l-2.535,0l0,-11.785l-33.436,-32.614l0,44.399l-2.535,0Z"
      style="fill-opacity:0;fill-rule:nonzero;stroke:#000;stroke-width:3px;stroke-miterlimit:5;" />
  </g>
</svg>