<svg width="100%" height="100%" viewBox="0 0 116 72" version="1.1" xmlns="http://www.w3.org/2000/svg"
  xmlns:xlink="http://www.w3.org/1999/xlink" xml:space="preserve" xmlns:serif="http://www.serif.com/"
  style="fill-rule:evenodd;clip-rule:evenodd;stroke-miterlimit:2;">
  <g id="UP">
    <path
      d="M29.48,64.327c-4.106,0 -7.901,-1.026 -11.386,-3.079c-3.484,-2.053 -6.253,-4.822 -8.306,-8.307c-2.053,-3.484 -3.08,-7.28 -3.08,-11.386l0,-34.847l45.544,0l0,34.847c0,4.106 -1.026,7.902 -3.079,11.386c-2.053,3.485 -4.822,6.254 -8.307,8.307c-3.484,2.053 -7.28,3.079 -11.386,3.079Z"
      style="fill-opacity:0;fill-rule:nonzero;stroke:#000;stroke-width:6px;" />
    <path
      d="M64.005,63.112l0,-56.404l23.583,0c3.944,0 7.347,0.73 10.211,2.188c3.295,1.675 5.916,4.066 7.861,7.172c1.944,3.107 2.917,6.524 2.917,10.252c-0,3.728 -0.959,7.158 -2.877,10.292c-1.918,3.133 -4.525,5.537 -7.82,7.212c-2.81,1.459 -6.24,2.188 -10.292,2.188l-8.834,0l0,17.1l-14.749,-0Z"
      style="fill-opacity:0;fill-rule:nonzero;stroke:#000;stroke-width:6px;" />
  </g>
</svg>